<svg width="42" height="34" viewBox="0 0 42 34" fill="none" xmlns="http://www.w3.org/2000/svg">
<path d="M17.0776 12.098C16.607 12.098 16.2251 11.7254 16.2251 11.2663V6.27609C16.2251 5.817 16.607 5.4444 17.0776 5.4444C17.5482 5.4444 17.9301 5.817 17.9301 6.27609V11.2663C17.9301 11.7254 17.5482 12.098 17.0776 12.098Z" fill="#FF9356"/>
<path d="M25.6025 12.098C25.1319 12.098 24.75 11.7254 24.75 11.2663V6.27609C24.75 5.817 25.1319 5.4444 25.6025 5.4444C26.0731 5.4444 26.455 5.817 26.455 6.27609V11.2663C26.455 11.7254 26.0731 12.098 25.6025 12.098Z" fill="#FF9356"/>
<path d="M36.5434 7.10683H5.89462C4.05836 7.10683 2.43351 5.96408 1.85211 4.26409L0.922894 1.54776C0.837645 1.29493 0.880269 1.01547 1.04054 0.799233C1.20081 0.581328 1.45826 0.453247 1.73276 0.453247H40.9473C41.2321 0.453247 41.4981 0.592972 41.6566 0.824184C41.8152 1.0554 41.8442 1.34815 41.7333 1.60598L40.4768 4.55019C39.8135 6.10214 38.2688 7.10683 36.5434 7.10683ZM2.91431 2.11664L3.46843 3.73845C3.81795 4.75812 4.7932 5.44344 5.89462 5.44344H36.5417C37.5766 5.44344 38.5041 4.84129 38.9031 3.90812L39.6686 2.11664H2.91431Z" fill="#FF9356"/>
<path d="M34.1273 33.7192H8.55259C7.14257 33.7192 5.99512 32.5997 5.99512 31.2241C5.99512 31.116 6.00194 31.0095 6.01558 30.9081L8.18261 14.0728C8.452 11.9952 10.2695 10.4316 12.4127 10.4316H30.2672C32.4104 10.4316 34.2279 11.9952 34.4956 14.0712L36.6643 30.9097C36.678 31.0095 36.6848 31.116 36.6848 31.2241C36.6848 32.5997 35.5373 33.7192 34.1273 33.7192ZM12.4127 12.095C11.1271 12.095 10.0359 13.0332 9.87566 14.2791L7.70692 31.1193C7.7001 31.6815 8.08202 32.0558 8.55259 32.0558H34.1273C34.5979 32.0558 34.9798 31.6815 34.9798 31.2241L32.8043 14.2791C32.644 13.0332 31.5528 12.095 30.2672 12.095H12.4127Z" fill="#FF9356"/>
<path d="M28.1603 25.4069C27.6897 25.4069 27.3078 25.0343 27.3078 24.5752C27.3078 21.3648 24.631 18.7533 21.3404 18.7533C18.0498 18.7533 15.373 21.3648 15.373 24.5752C15.373 25.0343 14.991 25.4069 14.5205 25.4069C14.0499 25.4069 13.668 25.0343 13.668 24.5752C13.668 20.4483 17.1103 17.0899 21.3404 17.0899C25.5704 17.0899 29.0128 20.4483 29.0128 24.5752C29.0128 25.0343 28.6309 25.4069 28.1603 25.4069Z" fill="#FF9356"/>
<path d="M21.3401 27.0722C21.2122 27.0722 21.0826 27.044 20.9599 26.9841C20.5387 26.7778 20.3683 26.2788 20.578 25.8679L22.2829 22.5412C22.4944 22.132 23.0041 21.9623 23.427 22.1686C23.8481 22.3748 24.0186 22.8738 23.8089 23.2847L22.1039 26.6115C21.9522 26.9026 21.6521 27.0722 21.3401 27.0722Z" fill="#FF9356"/>
</svg>
