<svg width="31" height="26" viewBox="0 0 31 26" fill="none" xmlns="http://www.w3.org/2000/svg">
<path d="M12.2708 9.18757C11.9143 9.18757 11.625 8.90529 11.625 8.55749V4.77705C11.625 4.42925 11.9143 4.14697 12.2708 4.14697C12.6273 4.14697 12.9167 4.42925 12.9167 4.77705V8.55749C12.9167 8.90529 12.6273 9.18757 12.2708 9.18757Z" fill="#FF9356"/>
<path d="M18.7293 9.18757C18.3728 9.18757 18.0835 8.90529 18.0835 8.55749V4.77705C18.0835 4.42925 18.3728 4.14697 18.7293 4.14697C19.0858 4.14697 19.3751 4.42925 19.3751 4.77705V8.55749C19.3751 8.90529 19.0858 9.18757 18.7293 9.18757Z" fill="#FF9356"/>
<path d="M27.0178 5.40632H3.79904C2.40793 5.40632 1.17699 4.54059 0.736535 3.25272L0.0325843 1.1949C-0.0319984 1.00336 0.000292932 0.791653 0.121708 0.627833C0.243124 0.462754 0.438163 0.365723 0.64612 0.365723H30.3541C30.5698 0.365723 30.7713 0.471575 30.8915 0.646736C31.0116 0.821896 31.0336 1.04368 30.9496 1.23901L29.9976 3.46947C29.4952 4.64519 28.325 5.40632 27.0178 5.40632ZM1.54123 1.62587L1.96102 2.85452C2.22581 3.62699 2.96464 4.14617 3.79904 4.14617H27.0165C27.8005 4.14617 28.5032 3.68999 28.8055 2.98305L29.3854 1.62587H1.54123Z" fill="#FF9356"/>
<path d="M25.1873 25.5671H5.81248C4.74428 25.5671 3.875 24.7191 3.875 23.6769C3.875 23.595 3.88017 23.5144 3.8905 23.4375L5.53219 10.6835C5.73627 9.10959 7.11317 7.92505 8.73678 7.92505H22.263C23.8866 7.92505 25.2635 9.10959 25.4663 10.6823L27.1093 23.4388C27.1196 23.5144 27.1248 23.595 27.1248 23.6769C27.1248 24.7191 26.2555 25.5671 25.1873 25.5671ZM8.73678 9.1852C7.76288 9.1852 6.93622 9.89592 6.8148 10.8398L5.17182 23.5975C5.16665 24.0235 5.45598 24.307 5.81248 24.307H25.1873C25.5438 24.307 25.8331 24.0235 25.8331 23.6769L24.185 10.8398C24.0635 9.89592 23.2369 9.1852 22.263 9.1852H8.73678Z" fill="#FF9356"/>
<path d="M20.667 19.27C20.3105 19.27 20.0212 18.9877 20.0212 18.6399C20.0212 16.2078 17.9933 14.2294 15.5004 14.2294C13.0075 14.2294 10.9796 16.2078 10.9796 18.6399C10.9796 18.9877 10.6903 19.27 10.3338 19.27C9.97732 19.27 9.68799 18.9877 9.68799 18.6399C9.68799 15.5135 12.2958 12.9692 15.5004 12.9692C18.705 12.9692 21.3129 15.5135 21.3129 18.6399C21.3129 18.9877 21.0235 19.27 20.667 19.27Z" fill="#FF9356"/>
<path d="M15.5003 20.5315C15.4034 20.5315 15.3053 20.5101 15.2123 20.4647C14.8932 20.3085 14.764 19.9304 14.9229 19.6192L16.2146 17.0989C16.3747 16.7889 16.7609 16.6604 17.0813 16.8166C17.4003 16.9729 17.5295 17.3509 17.3706 17.6622L16.0789 20.1825C15.964 20.403 15.7367 20.5315 15.5003 20.5315Z" fill="#FF9356"/>
</svg>
