<svg width="43" height="41" viewBox="0 0 43 41" fill="none" xmlns="http://www.w3.org/2000/svg">
<path d="M2.09944 17.9801C1.94091 18.505 1.81028 19.3488 2.22202 20.1539C2.61544 20.9225 3.38538 21.4589 4.51216 21.752C5.7111 25.6609 7.44857 28.8477 9.68023 31.2283C12.6309 34.377 16.3907 36.0467 20.8614 36.1996L22.0063 39.1161L19.2547 39.6418C19.1625 39.6594 19.075 39.6942 18.9969 39.7441C18.9189 39.794 18.8519 39.8581 18.7997 39.9328C18.7476 40.0075 18.7114 40.0912 18.6932 40.1792C18.675 40.2672 18.6751 40.3578 18.6935 40.4458C18.7119 40.5338 18.7483 40.6175 18.8006 40.692C18.8529 40.7666 18.92 40.8306 18.9981 40.8803C19.0763 40.9301 19.164 40.9647 19.2561 40.9821C19.3483 40.9995 19.4431 40.9994 19.5352 40.9818L26.1525 39.7178L26.6235 40.6176C26.6651 40.6985 26.723 40.7708 26.794 40.8303C26.8649 40.8898 26.9475 40.9353 27.037 40.9641C27.1264 40.9929 27.221 41.0046 27.3151 40.9984C27.4093 40.9921 27.5013 40.9682 27.5857 40.9279C27.6701 40.8875 27.7454 40.8316 27.8071 40.7634C27.8688 40.6951 27.9158 40.6159 27.9453 40.5302C27.9748 40.4446 27.9862 40.3542 27.979 40.2643C27.9717 40.1744 27.9459 40.0867 27.903 40.0064L27.1877 38.6399C27.1175 38.5059 27.0031 38.3976 26.8622 38.3318C26.7212 38.2659 26.5616 38.2462 26.4077 38.2755L23.4275 38.8446L22.3754 36.1654C25.1859 35.8831 27.8885 34.9781 30.2684 33.5225C32.8157 31.9604 34.8711 29.813 36.3774 27.1403C38.163 23.9717 39.1721 20.0571 39.3809 15.4966C39.4636 15.4779 39.5461 15.4568 39.6282 15.4304C39.9369 15.3367 40.2172 15.1727 40.4447 14.9525C40.6722 14.7323 40.8402 14.4625 40.9342 14.1664C41.1425 13.5264 41.0241 12.7435 40.6463 12.2624L40.1388 11.6153H42.2847C42.3905 11.6153 42.495 11.5928 42.5907 11.5496C42.6863 11.5064 42.7708 11.4434 42.8379 11.3652C42.905 11.287 42.9531 11.1956 42.9787 11.0975C43.0043 10.9994 43.0069 10.8971 42.9861 10.798C42.5449 8.69104 41.1506 7.90966 40.0587 7.62525C39.8363 7.56779 39.6099 7.52566 39.3812 7.49919C39.3563 7.36391 39.3246 7.22384 39.2836 7.0807C39.9651 6.72244 40.4742 6.12529 40.7036 5.41528C40.8108 5.10954 40.8396 4.78368 40.7877 4.46508C40.7357 4.14648 40.6045 3.84444 40.405 3.58434C40.2053 3.32117 39.9432 3.10686 39.6403 2.9589C39.3373 2.81094 39.0019 2.73354 38.6616 2.733H38.5856C38.4372 2.33364 38.163 1.98791 37.8008 1.74326C37.4385 1.4986 37.0059 1.367 36.5622 1.3665H36.4396C36.2912 0.967136 36.0171 0.621411 35.6549 0.376755C35.2926 0.132098 34.86 0.000495338 34.4163 0H32.9857C32.796 0 32.6141 0.0719851 32.4799 0.20012C32.3458 0.328254 32.2704 0.502042 32.2704 0.683251V4.56779C30.023 5.65749 29.1185 8.42115 28.4737 10.3925C28.2492 11.0787 27.9504 11.9922 27.7203 12.2984H6.64913L1.04821 10.2923C0.948029 10.2564 0.840697 10.2425 0.734119 10.2515C0.627542 10.2605 0.524436 10.2922 0.432393 10.3443C0.340351 10.3964 0.261718 10.4676 0.202287 10.5526C0.142855 10.6375 0.104138 10.7342 0.0889886 10.8353C0.058767 11.0372 -0.586079 15.593 2.09944 17.9801ZM39.5683 13.7603C39.5414 13.85 39.4908 13.9316 39.4214 13.9972C39.352 14.0629 39.2662 14.1104 39.172 14.1353C38.8646 14.231 38.5308 14.2124 38.2371 14.0832C38.1373 14.0438 38.0482 13.9831 37.9769 13.9056C37.9056 13.8281 37.8539 13.736 37.8258 13.6363C37.7966 13.5355 37.792 13.4296 37.8125 13.3269C37.833 13.2241 37.8779 13.1272 37.9438 13.0437L38.7081 12.0707L39.502 13.0819C39.5729 13.1721 39.6581 13.4846 39.5683 13.7603ZM39.7236 8.95469C40.0737 9.04164 40.3986 9.20326 40.6739 9.4274C40.9492 9.65154 41.1677 9.93236 41.313 10.2488H38.7081V8.82684C39.0512 8.8245 39.3929 8.86753 39.7236 8.95469ZM33.701 1.3665H34.4163C34.606 1.36671 34.7878 1.43876 34.9219 1.56685C35.056 1.69494 35.1314 1.86861 35.1316 2.04975C35.1316 2.23096 35.207 2.40475 35.3411 2.53288C35.4753 2.66102 35.6572 2.733 35.8469 2.733H36.5622C36.7519 2.73321 36.9337 2.80526 37.0678 2.93335C37.2019 3.06144 37.2773 3.23511 37.2775 3.41626C37.2775 3.59746 37.3529 3.77125 37.487 3.89939C37.6212 4.02752 37.8031 4.09951 37.9928 4.09951H38.6616C38.7758 4.09901 38.8885 4.1247 38.9901 4.17442C39.0917 4.22413 39.1794 4.29641 39.2457 4.38519C39.3114 4.47055 39.3548 4.56974 39.3721 4.67442C39.3894 4.7791 39.3802 4.88622 39.3452 4.98679C39.2351 5.33679 38.9972 5.63741 38.6746 5.83394C38.6107 5.74759 38.5431 5.6621 38.469 5.5784C37.596 4.59708 36.2325 4.09951 34.4163 4.09951C34.1771 4.09916 33.9381 4.11443 33.701 4.1452V1.3665ZM29.8392 10.8001C30.7938 7.88173 31.7971 5.46601 34.4163 5.46601C35.8278 5.46601 37.4997 5.8418 37.926 7.51679C37.8842 7.52319 37.8586 7.52789 37.8526 7.529C37.6904 7.55998 37.5445 7.64367 37.4397 7.76582C37.3348 7.88798 37.2775 8.04106 37.2775 8.19901V10.932C37.2776 11.099 37.3419 11.2601 37.4583 11.3847L36.7997 12.2234C36.6035 12.4729 36.4696 12.7619 36.4081 13.0684C36.3466 13.3749 36.3592 13.6907 36.4449 13.9918C36.5307 14.2929 36.6873 14.5713 36.9028 14.8058C37.1183 15.0404 37.387 15.2247 37.6885 15.345C37.7758 15.3795 37.8631 15.4099 37.9503 15.4362C37.7519 19.769 36.8089 23.4738 35.1406 26.4521C33.76 28.9163 31.8802 30.8962 29.5535 32.3366C25.5662 34.8052 21.5796 34.8458 21.5409 34.8458C12.4003 34.8458 8.10879 28.1098 6.0979 22.0341L9.05648 22.5051C10.0085 23.3096 14.8057 27.1025 20.6071 27.1024C20.8221 27.1024 21.0386 27.0971 21.2565 27.0865C24.7831 26.9119 27.9486 25.3054 30.665 22.3116C33.1824 19.5373 34.021 17.2146 33.1574 15.4079C32.6241 14.2924 31.4815 13.4559 29.7613 12.9219C29.5421 12.8536 29.3207 12.7933 29.0988 12.7388C29.3666 12.2429 29.5834 11.5819 29.8392 10.8001ZM25.1174 13.665C29.2714 13.665 31.3221 14.8586 31.8561 15.9756C32.4576 17.2341 31.672 19.1155 29.584 21.4166C27.1341 24.1162 24.3107 25.5646 21.191 25.7211C16.3185 25.9667 11.9591 22.9986 10.4405 21.8282C12.1647 20.23 17.5297 15.3852 20.9982 13.6648L25.1174 13.665ZM7.16325 13.665H18.2683C14.8796 15.893 10.9482 19.4494 9.46921 20.8231C8.62274 19.6325 6.93212 16.8239 7.16325 13.665ZM1.44002 11.8921L5.74659 13.4344C5.46682 16.5774 6.82411 19.3475 7.82929 20.9246L5.21745 20.5088C4.32189 20.3353 3.74768 20.0166 3.51073 19.5604C3.16855 18.9018 3.58039 18.0748 3.58226 18.0702C3.65726 17.9271 3.67731 17.7634 3.63891 17.6077C3.60051 17.4519 3.5061 17.314 3.37214 17.2179C1.56734 15.925 1.39612 13.2658 1.44002 11.8921Z" fill="#454242" fill-opacity="0.95"/>
</svg>
