<svg width="33" height="33" viewBox="0 0 33 33" fill="none" xmlns="http://www.w3.org/2000/svg">
<path d="M1.6112 14.5021C1.48954 14.917 1.38928 15.5839 1.70527 16.2202C2.0072 16.8277 2.59808 17.2516 3.46282 17.4833C4.38293 20.5728 5.71634 23.0916 7.42901 24.9731C9.69345 27.4617 12.5789 28.7814 16.0099 28.9022L16.8885 31.2074L14.7768 31.6228C14.7061 31.6368 14.6389 31.6642 14.579 31.7037C14.5191 31.7432 14.4677 31.7938 14.4277 31.8528C14.3877 31.9118 14.3599 31.978 14.346 32.0476C14.332 32.1172 14.332 32.1888 14.3462 32.2583C14.3603 32.3279 14.3882 32.394 14.4284 32.4529C14.4685 32.5118 14.52 32.5624 14.58 32.6017C14.64 32.6411 14.7072 32.6684 14.778 32.6822C14.8487 32.6959 14.9215 32.6959 14.9922 32.682L20.0705 31.6829L20.432 32.3941C20.4639 32.4581 20.5084 32.5152 20.5628 32.5622C20.6173 32.6092 20.6807 32.6452 20.7493 32.668C20.8179 32.6908 20.8905 32.7 20.9628 32.695C21.0351 32.6901 21.1056 32.6712 21.1704 32.6393C21.2352 32.6074 21.293 32.5632 21.3403 32.5093C21.3877 32.4554 21.4237 32.3927 21.4464 32.325C21.469 32.2573 21.4778 32.1859 21.4722 32.1148C21.4667 32.0438 21.4469 31.9745 21.414 31.911L20.865 30.831C20.8111 30.7251 20.7233 30.6395 20.6152 30.5875C20.507 30.5354 20.3844 30.5198 20.2664 30.5429L17.9792 30.9928L17.1718 28.8752C19.3287 28.6521 21.4028 27.9368 23.2292 26.7864C25.1842 25.5517 26.7615 23.8545 27.9176 21.742C29.2879 19.2377 30.0623 16.1437 30.2225 12.5392C30.286 12.5245 30.3493 12.5078 30.4123 12.4869C30.6493 12.4129 30.8643 12.2833 31.039 12.1092C31.2136 11.9352 31.3425 11.7219 31.4146 11.4879C31.5745 10.9821 31.4836 10.3633 31.1937 9.98306L30.8042 9.47159H32.451C32.5322 9.47159 32.6124 9.45387 32.6859 9.41969C32.7593 9.38551 32.8241 9.33573 32.8756 9.27394C32.9271 9.21216 32.964 9.1399 32.9837 9.06238C33.0033 8.98486 33.0053 8.90401 32.9893 8.82566C32.6508 7.16037 31.5807 6.54279 30.7427 6.31801C30.5721 6.2726 30.3983 6.2393 30.2227 6.21838C30.2037 6.11145 30.1793 6.00075 30.1479 5.88762C30.6709 5.60446 31.0616 5.13249 31.2376 4.57132C31.3199 4.32967 31.3421 4.07213 31.3022 3.82032C31.2623 3.56851 31.1616 3.32978 31.0085 3.1242C30.8552 2.9162 30.6541 2.74682 30.4216 2.62988C30.1891 2.51294 29.9317 2.45176 29.6706 2.45134H29.6122C29.4983 2.13569 29.2879 1.86244 29.0099 1.66907C28.7319 1.4757 28.3999 1.37169 28.0594 1.3713H27.9653C27.8514 1.05565 27.641 0.782403 27.363 0.589034C27.085 0.395666 26.753 0.291651 26.4125 0.29126H25.3146C25.169 0.29126 25.0294 0.348154 24.9264 0.449428C24.8235 0.550701 24.7657 0.688057 24.7657 0.831279V3.90149C23.0409 4.76276 22.3468 6.94707 21.8519 8.50516C21.6796 9.04754 21.4503 9.76948 21.2737 10.0115H5.10282L0.804441 8.42598C0.727557 8.39762 0.645186 8.38659 0.563394 8.3937C0.481602 8.40081 0.402474 8.42588 0.331837 8.46706C0.2612 8.50824 0.200854 8.56449 0.155243 8.63165C0.109633 8.69882 0.0799202 8.7752 0.0682935 8.85516C0.0451002 9.01473 -0.449782 12.6154 1.6112 14.5021ZM30.3664 11.167C30.3457 11.2379 30.3069 11.3023 30.2537 11.3542C30.2004 11.4061 30.1345 11.4437 30.0622 11.4633C29.8263 11.539 29.5701 11.5243 29.3448 11.4221C29.2681 11.3911 29.1998 11.343 29.145 11.2818C29.0903 11.2205 29.0506 11.1477 29.0291 11.069C29.0067 10.9893 29.0032 10.9056 29.0189 10.8244C29.0346 10.7432 29.0691 10.6666 29.1197 10.6006L29.7062 9.83158L30.3155 10.6307C30.3699 10.702 30.4353 10.949 30.3664 11.167ZM30.4856 7.36875C30.7542 7.43748 31.0036 7.56522 31.2148 7.74237C31.4261 7.91952 31.5938 8.14147 31.7053 8.39155H29.7062V7.2677C29.9695 7.26586 30.2318 7.29986 30.4856 7.36875ZM25.8636 1.3713H26.4125C26.5581 1.37146 26.6976 1.42841 26.8005 1.52964C26.9034 1.63088 26.9613 1.76815 26.9615 1.91132C26.9615 2.05454 27.0193 2.1919 27.1223 2.29317C27.2252 2.39444 27.3648 2.45134 27.5104 2.45134H28.0594C28.2049 2.4515 28.3445 2.50844 28.4474 2.60968C28.5503 2.71092 28.6082 2.84818 28.6083 2.99136C28.6083 3.13458 28.6662 3.27193 28.7691 3.37321C28.8721 3.47448 29.0117 3.53138 29.1573 3.53138H29.6706C29.7582 3.53099 29.8446 3.55129 29.9226 3.59058C30.0006 3.62987 30.0679 3.687 30.1188 3.75717C30.1693 3.82464 30.2025 3.90303 30.2158 3.98577C30.2291 4.06851 30.222 4.15317 30.1952 4.23266C30.1107 4.50928 29.9281 4.74688 29.6805 4.90222C29.6315 4.83397 29.5796 4.7664 29.5227 4.70025C28.8528 3.92465 27.8063 3.53138 26.4125 3.53138C26.2289 3.5311 26.0455 3.54317 25.8636 3.56749V1.3713ZM22.8998 8.82728C23.6324 6.52072 24.4025 4.61141 26.4125 4.61141C27.4957 4.61141 28.7789 4.90843 29.106 6.23228C29.0739 6.23735 29.0543 6.24106 29.0496 6.24194C28.9252 6.26642 28.8132 6.33256 28.7328 6.42911C28.6523 6.52566 28.6083 6.64665 28.6083 6.77149V8.93157C28.6084 9.06353 28.6578 9.19087 28.7471 9.28933L28.2416 9.95227C28.0911 10.1495 27.9883 10.3779 27.9411 10.6201C27.8939 10.8623 27.9036 11.1119 27.9694 11.3499C28.0352 11.5879 28.1553 11.808 28.3207 11.9933C28.4861 12.1787 28.6924 12.3244 28.9237 12.4194C28.9907 12.4467 29.0577 12.4708 29.1246 12.4915C28.9724 15.916 28.2487 18.8442 26.9683 21.1981C25.9089 23.1458 24.4662 24.7106 22.6806 25.849C19.6206 27.8002 16.5611 27.8322 16.5314 27.8322C9.51655 27.8322 6.22303 22.5083 4.67978 17.7063L6.95032 18.0786C7.68091 18.7144 11.3625 21.7122 15.8148 21.7121C15.9798 21.7121 16.1459 21.7079 16.3131 21.6995C19.0196 21.5615 21.449 20.2918 23.5336 17.9256C25.4656 15.7329 26.1092 13.8971 25.4464 12.4692C25.0371 11.5875 24.1602 10.9264 22.8401 10.5043C22.6718 10.4503 22.5019 10.4026 22.3316 10.3596C22.5372 9.96766 22.7035 9.4452 22.8998 8.82728ZM19.2761 11.0916C22.4641 11.0916 24.0379 12.035 24.4477 12.9179C24.9094 13.9125 24.3064 15.3995 22.704 17.2182C20.8238 19.3519 18.657 20.4967 16.2628 20.6204C12.5235 20.8145 9.17791 18.4686 8.01248 17.5435C9.33573 16.2804 13.453 12.4512 16.1149 11.0914L19.2761 11.0916ZM5.49738 11.0916H14.0199C11.4192 12.8526 8.4021 15.6635 7.26707 16.7492C6.61745 15.8082 5.32 13.5883 5.49738 11.0916ZM1.10513 9.69036L4.41018 10.9094C4.19547 13.3935 5.23711 15.5829 6.00852 16.8294L4.00409 16.5008C3.3168 16.3636 2.87612 16.1117 2.69428 15.7511C2.43168 15.2306 2.74774 14.577 2.74918 14.5734C2.80673 14.4603 2.82212 14.3309 2.79265 14.2078C2.76318 14.0847 2.69073 13.9757 2.58792 13.8997C1.20284 12.8778 1.07144 10.7761 1.10513 9.69036Z" fill="#454242" fill-opacity="0.95"/>
</svg>
