<svg width="24" height="24" viewBox="0 0 24 24" fill="none" xmlns="http://www.w3.org/2000/svg">
<g clip-path="url(#clip0)">
<path d="M21.5151 3.35829L20.7234 3.03396L21.1674 2.12468C21.2856 1.88262 21.271 1.60175 21.1283 1.37328C20.9857 1.14481 20.7397 1.00845 20.4703 1.00845H20.1628L19.8921 0.441261C19.766 0.176933 19.5057 0.00780769 19.2129 -0.000114189C18.9211 -0.00747356 18.6512 0.146792 18.5109 0.403948L18.2804 0.826526L17.6288 0.440886C17.3896 0.299276 17.091 0.296839 16.8494 0.434558C16.6079 0.572276 16.4579 0.830464 16.4579 1.10848V1.41884C16.2106 1.46492 15.9983 1.62893 15.8928 1.86579C15.7643 2.1544 15.8222 2.48862 16.0403 2.71718L16.7299 3.43953C16.724 3.45931 16.7179 3.47904 16.7125 3.4991L16.2676 5.15154C15.9815 6.21429 15.3965 7.16384 14.5758 7.89743C14.3828 8.06998 14.3662 8.36632 14.5388 8.55931C14.7113 8.75234 15.0076 8.76893 15.2007 8.59639C16.1573 7.74115 16.8393 6.63424 17.1729 5.39525L17.6178 3.74285C17.7538 3.2374 18.2144 2.88439 18.7379 2.88439C19.1377 2.88439 19.5163 3.09593 19.7259 3.43653L19.7725 3.51223C19.7143 3.59032 19.6798 3.68712 19.6798 3.79203V4.32382C19.6798 4.58281 19.4691 4.79356 19.2101 4.79356C19.0552 4.79356 18.9104 4.87001 18.8231 4.99779C18.7357 5.12557 18.7171 5.28828 18.7733 5.43251L19.0414 6.12031C19.7971 8.05878 20.1803 10.0966 20.1803 12.1771C20.1803 13.8672 19.2605 15.4233 17.7797 16.2382C17.6828 16.2915 17.6078 16.3774 17.5681 16.4807L17.4434 16.8052C16.8106 18.452 15.2001 19.5585 13.4359 19.5585H11.9536C11.9443 19.5582 11.9351 19.5576 11.9258 19.5578C10.4545 19.5433 9.26192 18.3424 9.26192 16.8678C9.26192 16.6089 9.05202 16.3991 8.79317 16.3991H7.38552C6.41933 16.3991 5.63323 15.613 5.63323 14.6468C5.63323 14.3879 5.42333 14.178 5.16448 14.178C4.04305 14.178 3.13067 13.2657 3.13067 12.1442V11.2679H6.06655C7.9767 11.2679 9.86736 10.972 11.6861 10.3883C11.9326 10.3092 12.0683 10.0453 11.9892 9.79878C11.9101 9.55231 11.6463 9.41656 11.3997 9.49568C9.67367 10.0496 7.87934 10.3304 6.06659 10.3304H2.66211C2.40327 10.3304 2.19336 10.5403 2.19336 10.7992V12.1443C2.19336 13.6356 3.29764 14.8738 4.73145 15.0841C4.94089 16.3601 6.05136 17.3367 7.3857 17.3367H8.35475C8.57028 18.9996 9.91625 20.3127 11.5941 20.4782L12.297 22.573C11.8292 22.6414 11.4683 23.0443 11.4683 23.5309C11.4683 23.7898 11.6782 23.9997 11.9371 23.9997C12.1959 23.9997 12.4058 23.7898 12.4058 23.5309C12.4058 23.5134 12.4201 23.4991 12.4377 23.4991H12.9414C12.9425 23.4991 12.9437 23.4992 12.9448 23.4992C12.946 23.4992 12.9471 23.4991 12.9483 23.4991H13.4257C13.4433 23.4991 13.4577 23.5134 13.4577 23.5309C13.4577 23.7898 13.6676 23.9997 13.9264 23.9997C14.1853 23.9997 14.3952 23.7898 14.3952 23.5309C14.3952 23.5202 14.3939 23.5098 14.3936 23.4991H14.542C14.5432 23.4991 14.5443 23.4992 14.5455 23.4992C14.5466 23.4992 14.5478 23.4991 14.5489 23.4991H15.0264C15.044 23.4991 15.0583 23.5134 15.0583 23.5309C15.0583 23.7898 15.2682 23.9997 15.527 23.9997C15.7859 23.9997 15.9958 23.7898 15.9958 23.5309C15.9958 22.9964 15.5609 22.5616 15.0264 22.5616H14.8826L14.1721 20.4439C14.9682 20.3315 15.7268 20.0378 16.398 19.5767C17.2736 18.9752 17.9377 18.1332 18.3188 17.1416L18.3835 16.9731C20.0747 15.9724 21.118 14.1508 21.118 12.1772C21.118 9.97971 20.7132 7.82735 19.9151 5.7799L19.8383 5.58298C20.2999 5.35184 20.6174 4.87423 20.6174 4.32387V4.26082H21.3374C21.5614 4.26082 21.7541 4.10239 21.7973 3.88264C21.8406 3.66284 21.7223 3.44318 21.5151 3.35829ZM13.6733 22.5615C13.6377 22.5615 13.603 22.5659 13.5696 22.5734C13.5226 22.5664 13.4747 22.5615 13.4257 22.5615H13.282L12.589 20.4961H13.2008L13.8938 22.5615H13.6733ZM18.738 1.94689C18.1512 1.94689 17.6082 2.19242 17.2215 2.59667L16.9218 2.28275C17.0091 2.24576 17.0897 2.19246 17.16 2.12421C17.3118 1.97684 17.3954 1.77917 17.3954 1.56762V1.39212L17.9471 1.7186C18.1272 1.8252 18.3462 1.85445 18.548 1.79895C18.7498 1.7434 18.923 1.6062 19.0233 1.42245L19.1824 1.1307L19.3607 1.50434C19.4888 1.77256 19.7637 1.9459 20.0609 1.9459H20.2115L20.0025 2.37378C19.6424 2.10237 19.1982 1.94689 18.738 1.94689Z" fill="white"/>
<path d="M7.72951 12.5782C7.57726 12.5782 7.43453 12.6521 7.34668 12.7764C7.25884 12.9007 7.23681 13.0599 7.28767 13.2034C7.81098 14.6804 9.18095 15.6918 10.734 15.769C10.9401 16.5586 11.6593 17.1429 12.5125 17.1429C13.8895 17.1429 15.1368 16.3283 15.6902 15.0675L15.7028 15.0388C15.897 14.5964 15.9954 14.1271 15.9954 13.644V11.3932C15.9954 11.2327 15.9133 11.0834 15.7777 10.9974C15.6422 10.9115 15.472 10.9008 15.3268 10.9692C13.0937 12.0217 10.6086 12.5781 8.13995 12.5781H7.72951V12.5782ZM15.0579 12.1155V13.6441C15.0579 13.9966 14.986 14.3392 14.8443 14.662L14.8317 14.6907C14.4278 15.6109 13.5175 16.2055 12.5125 16.2055C12.016 16.2055 11.6121 15.8016 11.6121 15.3051C11.6121 15.0462 11.4022 14.8364 11.1434 14.8364H10.9254C9.92617 14.8364 9.01084 14.3244 8.47937 13.5123C10.7294 13.4685 12.9827 12.9892 15.0579 12.1155Z" fill="white"/>
<path d="M16.8757 14.5949C16.6488 14.7197 16.5661 15.0048 16.691 15.2316C16.7764 15.3868 16.9367 15.4745 17.1021 15.4745C17.1785 15.4745 17.256 15.4558 17.3277 15.4163C18.5048 14.7685 19.2387 13.5315 19.2428 12.188C19.2436 11.9291 19.0343 11.7186 18.7755 11.7178C18.5185 11.7174 18.306 11.9262 18.3053 12.1851C18.3021 13.188 17.7543 14.1114 16.8757 14.5949Z" fill="white"/>
<path d="M18.6071 9.8451C18.35 9.87496 18.1657 10.1076 18.1956 10.3648C18.1957 10.3661 18.1964 10.3713 18.1965 10.3726L18.1978 10.3828C18.2267 10.6206 18.4289 10.7949 18.6625 10.7949C18.6814 10.7949 18.7005 10.7938 18.7198 10.7915C18.9767 10.7601 19.1597 10.5264 19.1284 10.2695L19.127 10.2581L19.1269 10.2567C19.0969 9.99951 18.8644 9.81519 18.6071 9.8451Z" fill="white"/>
<path d="M13.3008 9.73069C13.4241 9.73069 13.545 9.68054 13.6321 9.59335C13.7193 9.50569 13.7695 9.38522 13.7695 9.26147C13.7695 9.13819 13.7194 9.01772 13.6321 8.93007C13.545 8.84288 13.4241 8.79272 13.3008 8.79272C13.1775 8.79272 13.0566 8.84288 12.9694 8.93007C12.8822 9.01772 12.832 9.13819 12.832 9.26147C12.832 9.38522 12.8821 9.50569 12.9694 9.59335C13.0566 9.68058 13.1775 9.73069 13.3008 9.73069Z" fill="white"/>
</g>
<defs>
<clipPath id="clip0">
<rect width="24" height="24" fill="white"/>
</clipPath>
</defs>
</svg>
