<svg width="28" height="28" viewBox="0 0 28 28" fill="none" xmlns="http://www.w3.org/2000/svg">
<g clip-path="url(#clip0)">
<path d="M14 27.999C14.302 27.999 14.5469 27.7542 14.5469 27.4521C14.5469 27.1501 14.302 26.9053 14 26.9053C13.698 26.9053 13.4531 27.1501 13.4531 27.4521C13.4531 27.7542 13.698 27.999 14 27.999Z" fill="#01B7FF"/>
<path d="M24.1647 0H3.83597C1.72098 0 0.000731337 1.7354 0.000731337 3.85038C0.000731337 3.86023 0.000184462 3.84054 0.000731337 3.85038L1.09629 24.1797C1.10465 26.2876 2.82206 28 4.93185 28H11.5442C11.8468 28 12.0921 27.7547 12.0921 27.452C12.0921 27.1494 11.8468 26.9041 11.5442 26.9041H4.93185C3.42116 26.9041 2.19173 25.6603 2.19173 24.1496C2.19173 24.1397 2.19228 24.1594 2.19173 24.1496L1.09629 3.82151C1.10389 2.31727 2.32998 1.09588 3.83597 1.09588H24.1647C25.6707 1.09588 26.8968 2.31727 26.9044 3.82151L25.809 24.1496C25.8084 24.1595 25.809 24.1398 25.809 24.1496C25.809 25.6603 24.5795 26.9041 23.0688 26.9041H16.4565C16.1539 26.9041 15.9086 27.1494 15.9086 27.4521C15.9086 27.7547 16.1539 28 16.4565 28H23.0688C25.1786 28 26.896 26.2876 26.9044 24.1797L28 3.85033C28.0005 3.84048 28 3.86017 28 3.85033C28 1.7354 26.2797 0 24.1647 0Z" fill="#01B7FF"/>
<path d="M8.41381 12.5572H19.5865C19.804 12.5572 20.001 12.4285 20.0883 12.2292L22.4655 6.80453C22.5662 6.57484 22.498 6.30611 22.3001 6.15211C21.2231 5.31424 18.242 3.36409 14.021 3.35156C14.0073 3.35156 14.0348 3.35156 14.021 3.35156C9.7799 3.35156 6.78456 5.30861 5.70027 6.15211C5.50236 6.30611 5.43421 6.57484 5.53489 6.80453L7.91205 12.2292C7.99928 12.4285 8.19626 12.5572 8.41381 12.5572ZM13.9994 9.99877C14.5796 9.99877 15.1423 10.1193 15.6268 10.3471C16.2003 10.6168 16.6167 11.0128 16.8201 11.4613H11.1792C11.5623 10.6173 12.6924 9.99877 13.9994 9.99877ZM8.86657 5.54202L9.29417 6.44917C9.38757 6.64741 9.58461 6.76363 9.79013 6.76363C9.86839 6.76363 9.94796 6.74678 10.0234 6.71118C10.2971 6.58212 10.4144 6.25563 10.2854 5.98192L9.88824 5.13935C10.9076 4.78705 12.104 4.5187 13.4522 4.46019V5.39726C13.4522 5.6999 13.6976 5.94523 14.0002 5.94523C14.3028 5.94523 14.5482 5.6999 14.5482 5.39726V4.4603C15.8888 4.51848 17.0797 4.78405 18.0954 5.1335L17.7409 6.03169C17.6299 6.31316 17.7679 6.63145 18.0495 6.74257C18.1155 6.76866 18.1835 6.78096 18.2505 6.78096C18.4688 6.78096 18.6753 6.64949 18.7603 6.43408L19.1154 5.5342C20.0556 5.95048 20.7899 6.40985 21.2869 6.76401L19.2284 11.4614H17.9783C17.7583 10.5856 17.0837 9.82126 16.0932 9.35543C15.4638 9.05941 14.7398 8.90289 13.9994 8.90289C13.2214 8.90289 12.4968 9.07226 11.881 9.3667L11.1271 7.76703C10.998 7.49332 10.6717 7.37591 10.3978 7.50497C10.1241 7.63403 10.0067 7.96052 10.1357 8.23423L10.9561 9.97498C10.4925 10.3872 10.1638 10.8959 10.0223 11.4614H8.77201L6.71352 6.76401C7.20789 6.4116 7.93568 5.956 8.86657 5.54202Z" fill="#01B7FF"/>
<path d="M8.41369 14.749H19.5863C19.8889 14.749 20.1343 14.5037 20.1343 14.201C20.1343 13.8984 19.889 13.6531 19.5863 13.6531H8.41369C8.11111 13.6531 7.86572 13.8984 7.86572 14.201C7.86572 14.5037 8.11111 14.749 8.41369 14.749Z" fill="#01B7FF"/>
<path d="M4.31762 23.0831C4.31762 22.7805 4.07229 22.5352 3.76965 22.5352C3.46706 22.5352 3.22168 22.7805 3.22168 23.0831C3.22168 24.5996 4.45549 25.8334 5.97203 25.8334C6.27461 25.8334 6.51999 25.5881 6.51999 25.2854C6.51999 24.9828 6.27467 24.7375 5.97203 24.7375C5.05978 24.7375 4.31762 23.9954 4.31762 23.0831Z" fill="#01B7FF"/>
<path d="M21.4253 25.2854C21.4253 25.5881 21.6706 25.8334 21.9733 25.8334C23.4898 25.8334 24.7236 24.5996 24.7236 23.0831C24.7236 22.7805 24.4783 22.5352 24.1756 22.5352C23.873 22.5352 23.6277 22.7805 23.6277 23.0831C23.6277 23.9954 22.8855 24.7375 21.9733 24.7375C21.6706 24.7375 21.4253 24.9828 21.4253 25.2854Z" fill="#01B7FF"/>
</g>
<defs>
<clipPath id="clip0">
<rect width="28" height="28" fill="white"/>
</clipPath>
</defs>
</svg>
