<svg width="30" height="29" viewBox="0 0 30 29" fill="none" xmlns="http://www.w3.org/2000/svg">
<path d="M12 11.4399V14.7699" stroke="#292D32" stroke-width="1.5" stroke-miterlimit="10" stroke-linecap="round"/>
<path d="M12.0199 7C8.3399 7 5.3599 9.98 5.3599 13.66V15.76C5.3599 16.44 5.0799 17.46 4.7299 18.04L3.4599 20.16C2.6799 21.47 3.2199 22.93 4.6599 23.41C9.4399 25 14.6099 25 19.3899 23.41C20.7399 22.96 21.3199 21.38 20.5899 20.16L19.3199 18.04C18.9699 17.46 18.6899 16.43 18.6899 15.76V13.66C18.6799 10 15.6799 7 12.0199 7Z" stroke="#292D32" stroke-width="1.5" stroke-miterlimit="10" stroke-linecap="round"/>
<path d="M15.3299 23.8199C15.3299 25.6499 13.8299 27.1499 11.9999 27.1499C11.0899 27.1499 10.2499 26.7699 9.64992 26.1699C9.04992 25.5699 8.66992 24.7299 8.66992 23.8199" stroke="#292D32" stroke-width="1.5" stroke-miterlimit="10"/>
<circle cx="21.5" cy="8.5" r="8" fill="#FF9356" stroke="white"/>
<path d="M23.2207 11.1621V12H18.5391V11.2793L21.5391 7.98047C21.6758 7.83594 21.7969 7.68359 21.9023 7.52344C21.9922 7.38672 22.0742 7.22852 22.1484 7.04883C22.2227 6.86914 22.2598 6.67969 22.2598 6.48047C22.2598 6.12109 22.1348 5.82227 21.8848 5.58398C21.6387 5.3418 21.3047 5.2207 20.8828 5.2207C20.457 5.2207 20.1094 5.35547 19.8398 5.625C19.5742 5.89062 19.4414 6.23633 19.4414 6.66211H18.4805C18.4805 6.34961 18.5391 6.05273 18.6562 5.77148C18.7773 5.49023 18.9453 5.24805 19.1602 5.04492C19.3789 4.8418 19.6328 4.68164 19.9219 4.56445C20.2148 4.44336 20.5352 4.38281 20.8828 4.38281C21.2266 4.38281 21.541 4.43945 21.8262 4.55273C22.1152 4.66211 22.3613 4.8125 22.5645 5.00391C22.7676 5.19531 22.9277 5.41797 23.0449 5.67188C23.1621 5.92188 23.2207 6.19141 23.2207 6.48047C23.2207 6.75391 23.166 7.01562 23.0566 7.26562C22.9512 7.51172 22.834 7.72656 22.7051 7.91016C22.5605 8.125 22.3926 8.32812 22.2012 8.51953L19.7988 11.1621H23.2207Z" fill="black"/>
</svg>
