<svg width="27" height="31" viewBox="0 0 27 31" fill="none" xmlns="http://www.w3.org/2000/svg">
<path d="M24.7601 5.42312H21.5444C21.2333 5.42312 20.9596 5.2375 20.8468 4.95028C20.2816 3.50914 19.2988 2.27788 18.0044 1.38967C16.6797 0.480517 15.1221 0 13.5002 0C12.322 0 11.1888 0.249405 10.1321 0.741355C9.9085 0.845361 9.81328 1.10766 9.91931 1.32705C10.0253 1.5465 10.2926 1.63989 10.5161 1.53589C11.4519 1.10034 12.4559 0.879424 13.5002 0.879424C16.3653 0.879424 18.9816 2.64232 20.0107 5.26617C20.2537 5.88605 20.8701 6.30254 21.5444 6.30254H24.7601C25.5012 6.30254 26.1041 6.89434 26.1041 7.62168V23.1582C26.1041 23.4011 26.3047 23.5979 26.5521 23.5979C26.7996 23.5979 27.0002 23.4011 27.0002 23.1582V7.62168C27.0002 6.40936 25.9953 5.42312 24.7601 5.42312Z" fill="#289D44"/>
<path d="M26.552 24.7713C26.3045 24.7713 26.104 24.9681 26.104 25.211V27.82C26.104 28.5473 25.501 29.1391 24.7599 29.1391H2.24004C1.49892 29.1391 0.896017 28.5473 0.896017 27.82V7.62252C0.896017 6.89517 1.49892 6.30338 2.24004 6.30338H5.45555C6.14041 6.30338 6.74253 5.89662 6.98953 5.26695C7.38569 4.2562 8.03327 3.33849 8.86227 2.6132C9.04697 2.45156 9.06322 2.17366 8.89859 1.99232C8.7339 1.81099 8.4507 1.79516 8.26606 1.95674C7.33104 2.77484 6.60048 3.81027 6.15331 4.95112C6.04065 5.23828 5.76677 5.4239 5.45555 5.4239H2.24004C1.00485 5.42396 0 6.4102 0 7.62252V27.82C0 29.0323 1.00485 30.0185 2.24004 30.0185H24.7599C25.9951 30.0185 27 29.0323 27 27.82V25.211C27 24.9681 26.7995 24.7713 26.552 24.7713Z" fill="#289D44"/>
<path d="M13.5001 2.00879C10.5641 2.00879 8.07923 4.16238 7.72016 7.01823C7.68384 7.3072 7.77613 7.59841 7.97332 7.81739C8.17223 8.03818 8.45842 8.16476 8.75853 8.16476H11.9201C12.1157 8.84063 12.7497 9.33733 13.5002 9.33733C14.2506 9.33733 14.8847 8.84063 15.0803 8.16476H18.2418C18.542 8.16476 18.8281 8.03818 19.027 7.81739C19.2242 7.59853 19.3165 7.3072 19.2802 7.01823C18.921 4.16238 16.4361 2.00879 13.5001 2.00879ZM13.5001 8.4579C13.0884 8.4579 12.7534 8.12917 12.7534 7.72505C12.7534 7.32092 13.0884 6.99219 13.5001 6.99219C13.9119 6.99219 14.2468 7.32092 14.2468 7.72505C14.2468 8.12917 13.9119 8.4579 13.5001 8.4579ZM18.3556 7.23492C18.3387 7.25374 18.3013 7.28534 18.2418 7.28534H15.6802L16.86 6.82973C17.0902 6.7408 17.2034 6.48553 17.1128 6.25952C17.0222 6.0335 16.7621 5.92246 16.5318 6.01134L14.7624 6.6946C14.4608 6.33931 14.0069 6.11271 13.5001 6.11271C12.7496 6.11271 12.1155 6.60941 11.92 7.28528H8.75841C8.69885 7.28528 8.66146 7.25368 8.64449 7.23486C8.6249 7.21311 8.60298 7.17664 8.60931 7.12598C8.72872 6.17638 9.12685 5.31941 9.71601 4.62795L10.0647 4.96477C10.1519 5.04908 10.2654 5.09105 10.3789 5.09105C10.4947 5.09105 10.6105 5.0472 10.6982 4.95979C10.8718 4.78671 10.8695 4.50835 10.6932 4.33797L10.3506 4.00702C11.1005 3.39547 12.0351 2.99902 13.0521 2.90838V4.22201C13.0521 4.4649 13.2526 4.66172 13.5001 4.66172C13.7475 4.66172 13.9481 4.4649 13.9481 4.22201V2.90838C14.9663 2.99908 15.9019 3.3964 16.6523 4.0093L16.3149 4.34044C16.14 4.51222 16.14 4.79058 16.3149 4.96231C16.4024 5.04814 16.5171 5.09105 16.6318 5.09105C16.7464 5.09105 16.8611 5.04814 16.9486 4.96231L17.2865 4.63071C17.8743 5.3217 18.2715 6.17767 18.3908 7.12604C18.3972 7.17664 18.3752 7.21322 18.3556 7.23492Z" fill="#289D44"/>
<path d="M24.1032 12.7229C24.1032 10.8641 22.5624 9.35181 20.6685 9.35181C18.9958 9.35181 17.5994 10.5316 17.2957 12.0877C16.2117 11.3071 14.8907 10.8712 13.5003 10.8712C12.0819 10.8712 10.7696 11.3252 9.70582 12.0926C9.4041 10.5341 8.00655 9.35181 6.33219 9.35181C4.43825 9.35181 2.89746 10.8641 2.89746 12.7229V15.0681C2.89746 16.9269 4.43825 18.4392 6.33219 18.4392C6.6243 18.4392 6.91048 18.4033 7.18819 18.3332C7.74438 21.2565 10.363 23.4762 13.5003 23.4762C16.6375 23.4762 19.2561 21.2566 19.8124 18.3334C20.0902 18.4035 20.3764 18.4392 20.6685 18.4392C22.5624 18.4392 24.1032 16.9269 24.1032 15.0681V12.7229ZM6.33219 17.5598C4.93232 17.5598 3.79348 16.442 3.79348 15.0681V12.7229C3.79348 11.349 4.93232 10.2312 6.33219 10.2312C7.73207 10.2312 8.87091 11.349 8.87091 12.7229V12.8106C7.7617 13.9439 7.07888 15.4819 7.07888 17.1737C7.07888 17.2656 7.08132 17.357 7.08533 17.4479C6.84298 17.5219 6.59078 17.5598 6.33219 17.5598ZM23.2072 15.0681C23.2072 16.442 22.0683 17.5598 20.6685 17.5598C20.4099 17.5598 20.1577 17.522 19.9153 17.4481C19.9193 17.3571 19.9218 17.2657 19.9218 17.1737C19.9218 16.7115 19.8705 16.2502 19.7693 15.8026C19.7157 15.5655 19.4768 15.4163 19.2348 15.4686C18.9933 15.5211 18.841 15.756 18.8945 15.9931C18.9816 16.3782 19.0258 16.7754 19.0258 17.1737C19.0258 20.164 16.5471 22.5968 13.5003 22.5968C10.4536 22.5968 7.97489 20.164 7.97489 17.1737C7.97489 14.1834 10.4536 11.7506 13.5003 11.7506C15.3818 11.7506 17.1167 12.6771 18.1412 14.2291C18.2757 14.4329 18.5532 14.491 18.7608 14.359C18.9685 14.227 19.0277 13.9547 18.8932 13.7509C18.667 13.4084 18.411 13.0922 18.1298 12.8045V12.7229C18.1298 11.349 19.2686 10.2312 20.6685 10.2312C22.0683 10.2312 23.2072 11.349 23.2072 12.7229V15.0681Z" fill="#289D44"/>
<path d="M5.1375 23.5984H5.28684C5.53426 23.5984 5.73485 23.4016 5.73485 23.1587C5.73485 22.9158 5.53426 22.719 5.28684 22.719H5.1375C3.90231 22.719 2.89746 23.7052 2.89746 24.9176C2.89746 26.1299 3.90231 27.1161 5.1375 27.1161H7.52688C8.76207 27.1161 9.76693 26.1299 9.76693 24.9176C9.76693 23.7052 8.76207 22.719 7.52688 22.719H7.37755C7.13013 22.719 6.92954 22.9158 6.92954 23.1587C6.92954 23.4016 7.13013 23.5984 7.37755 23.5984H7.52688C8.26801 23.5984 8.87091 24.1902 8.87091 24.9176C8.87091 25.6449 8.26801 26.2367 7.52688 26.2367H5.1375C4.39638 26.2367 3.79348 25.6449 3.79348 24.9176C3.79348 24.1902 4.39638 23.5984 5.1375 23.5984Z" fill="#289D44"/>
<path d="M19.4734 22.719C18.2383 22.719 17.2334 23.7052 17.2334 24.9176C17.2334 26.1299 18.2383 27.1161 19.4734 27.1161H21.8628C23.098 27.1161 24.1029 26.1299 24.1029 24.9176C24.1029 23.7052 23.098 22.719 21.8628 22.719H19.4734ZM23.2068 24.9176C23.2068 25.6449 22.6039 26.2367 21.8628 26.2367H19.4734C18.7324 26.2367 18.1294 25.6449 18.1294 24.9176C18.1294 24.1902 18.7324 23.5984 19.4734 23.5984H21.8628C22.6039 23.5984 23.2068 24.1902 23.2068 24.9176Z" fill="#289D44"/>
<path d="M13.5 12.6306C10.9473 12.6306 8.87061 14.6689 8.87061 17.1743C8.87061 19.6797 10.9473 21.718 13.5 21.718C16.0527 21.718 18.1295 19.6797 18.1295 17.1743C18.1295 14.6689 16.0527 12.6306 13.5 12.6306ZM13.5 20.8386C11.4415 20.8386 9.76662 19.1948 9.76662 17.1743C9.76662 15.1538 11.4415 13.51 13.5 13.51C15.5587 13.51 17.2334 15.1538 17.2334 17.1743C17.2334 19.1948 15.5587 20.8386 13.5 20.8386Z" fill="#289D44"/>
<path d="M13.5003 17.5917C13.7477 17.5917 13.9483 17.3948 13.9483 17.1519V15.3931C13.9483 15.1502 13.7477 14.9534 13.5003 14.9534C13.2528 14.9534 13.0522 15.1502 13.0522 15.3931V17.1519C13.0522 17.3948 13.2528 17.5917 13.5003 17.5917Z" fill="#289D44"/>
<path d="M13.501 18.4712H13.5004C13.253 18.4712 13.0527 18.668 13.0527 18.9109C13.0527 19.1538 13.2536 19.3506 13.501 19.3506C13.7485 19.3506 13.949 19.1538 13.949 18.9109C13.949 18.668 13.7485 18.4712 13.501 18.4712Z" fill="#289D44"/>
</svg>
